# xmcd
#
# Track frame offsets: 
#        150
#        27161
#        41672
#        62214
#        82849
#        105914
#        121759
#        140433
#        169800
#        189541
#        208068
#        220519
#
# Disc length: 3425 seconds
#
# Revision: 1
# Processed by: cddbd v1.5.2PL0 Copyright (c) Steve Scherf et al.
# Submitted via: ExactAudioCopy v1.0b2
#
DISCID=9c0d5f0c
DTITLE=David West - Off The Rails
DYEAR=2005
DGENRE=Bluegrass
TTITLE0=MLT
TTITLE1=Crash Burn
TTITLE2=Born to Run
TTITLE3=Guinnevere
TTITLE4=All Hands
TTITLE5=Dancing in the Dark
TTITLE6=Deja Vu
TTITLE7=Weekapaug Groove
TTITLE8=I Can't Make You Love Me
TTITLE9=Turn, Turn, Turn
TTITLE10=Foxy Lady
TTITLE11=Maze
EXTD=
EXTT0=
EXTT1=
EXTT2=
EXTT3=
EXTT4=
EXTT5=
EXTT6=
EXTT7=
EXTT8=
EXTT9=
EXTT10=
EXTT11=
PLAYORDER=
